<?xml version="1.0" encoding="utf-8"?>
<!-- Generator: Adobe Illustrator 22.1.0, SVG Export Plug-In . SVG Version: 6.00 Build 0)  -->
<svg version="1.1" id="Layer_1" xmlns="http://www.w3.org/2000/svg" xmlns:xlink="http://www.w3.org/1999/xlink" x="0px" y="0px"
	 viewBox="0 0 339.6 100.8" style="enable-background:new 0 0 339.6 100.8;" xml:space="preserve">
<style type="text/css">
	.st0{fill:#FFFFFF;}
</style>
<g>
	<g>
		<path class="st0" d="M108.7,48.7l-2.4,4.9c-2.6-1.5-5.9-2.6-7.9-2.6c-1.6,0-2.7,0.6-2.7,1.8c0,4.3,13.1,1.8,13.1,10.8
			c0,5-4.4,7.6-9.9,7.6c-4.2,0-8.4-1.6-11.4-4l2.4-4.9c2.6,2.2,6.4,3.7,9,3.7c2,0,3.2-0.7,3.2-2.2c0-4.4-13.1-1.8-13.1-10.6
			c0-4.6,3.9-7.5,9.9-7.5C102.5,45.9,106.2,47,108.7,48.7"/>
	</g>
	<g>
		<polygon class="st0" points="125.8,51.3 125.8,71 119.5,71 119.5,51.3 112,51.3 112,46.1 133.3,46.1 133.3,51.3 		"/>
	</g>
	<g>
		<path class="st0" d="M141.5,58.6c0,4.2,3.2,7.4,7,7.4c3.8,0,6.9-3.2,6.9-7.4c0-4.2-3.1-7.3-6.9-7.3
			C144.7,51.3,141.5,54.4,141.5,58.6 M161.9,58.6c0,7.2-5.7,12.7-13.4,12.7c-7.7,0-13.4-5.5-13.4-12.7c0-7.2,5.7-12.6,13.4-12.6
			C156.2,46,161.9,51.4,161.9,58.6"/>
	</g>
	<g>
		<path class="st0" d="M177.6,59.1c2.7,0,4.3-1.4,4.3-4c0-2.6-1.6-3.9-4.3-3.9h-4.8v7.9H177.6z M177.8,64h-0.2h-4.8v7h-6.3V46.2
			h11.1c6.6,0,10.3,3.1,10.3,8.7c0,3.8-1.6,6.5-4.5,8l5.2,8.2h-7.2L177.8,64z"/>
	</g>
	<g>
		<polygon class="st0" points="199.7,51.1 199.7,56.1 211.6,56.1 211.6,61 199.7,61 199.7,66.1 213.3,66.1 213.3,71 193.4,71 
			193.4,46.2 212.9,46.2 212.9,51.1 		"/>
	</g>
	<g>
		<polygon class="st0" points="228.2,61.3 224.9,64.9 224.9,71 218.6,71 218.6,46.2 224.9,46.2 224.9,56.9 234.4,46.2 241.7,46.2 
			232.5,56.5 242.3,71 234.7,71 		"/>
	</g>
	<g>
		<rect x="246.3" y="46.2" class="st0" width="6.3" height="24.8"/>
	</g>
	<g>
		<polygon class="st0" points="276.2,71 264.7,55.7 264.7,71 258.8,71 258.8,46.2 264.4,46.2 275.8,61.5 275.8,46.2 281.7,46.2 
			281.7,71 		"/>
	</g>
	<g>
		<path class="st0" d="M309.9,58.4v9.7c-2.7,1.9-6.8,3.2-10.3,3.2c-7.6,0-13.3-5.5-13.3-12.7c0-7.2,5.9-12.6,13.7-12.6
			c3.7,0,7.6,1.4,10.1,3.7l-3.5,4.3c-1.8-1.7-4.3-2.7-6.6-2.7c-4.1,0-7.2,3.2-7.2,7.3c0,4.2,3.2,7.4,7.3,7.4c1.3,0,2.9-0.5,4.4-1.2
			v-6.4H309.9z"/>
	</g>
	<g>
		<path class="st0" d="M68.1,22.8c0.2,0.6,0.2,1.3,0.2,2c0,4.6-3.7,8.3-8.3,8.3s-8.3-3.7-8.3-8.3c0-0.7,0.1-1.4,0.2-2H46h-1
			c0.2,0.6,0.2,1.3,0.2,2c0,4.6-3.7,8.3-8.3,8.3c-4.6,0-8.3-3.7-8.3-8.3c0-0.7,0.1-1.4,0.2-2h-5l4.8,18.8h40.6l4.9-18.8H68.1z"/>
	</g>
	<g>
		<path class="st0" d="M31.7,22.8c0,2.7-2.2,4.9-4.8,4.9c-2.7,0-4.8-2.2-4.8-4.9c0-2.7,2.2-4.9,4.8-4.9
			C29.5,17.9,31.7,20.1,31.7,22.8"/>
	</g>
	<g>
		<path class="st0" d="M76.3,22.8c0,2.7-2.2,4.9-4.9,4.9c-2.7,0-4.8-2.2-4.8-4.9c0-2.7,2.2-4.9,4.8-4.9
			C74.2,17.9,76.3,20.1,76.3,22.8"/>
	</g>
	<g>
		<path class="st0" d="M58.2,89c-2.5,0-4.6-2.1-4.6-4.6c0-2.5,2-4.6,4.6-4.6c2.5,0,4.6,2.1,4.6,4.6C62.7,87,60.7,89,58.2,89"/>
	</g>
	<g>
		<path class="st0" d="M35.2,89c-2.5,0-4.6-2.1-4.6-4.6c0-2.5,2-4.6,4.6-4.6c2.5,0,4.6,2.1,4.6,4.6C39.8,87,37.7,89,35.2,89"/>
	</g>
	<g>
		<path class="st0" d="M70.7,45.4H24.8v0l-3-10.4c-1.2-2.7-3.6-2.7-3.8-2.7l-6.1,0c-1.4,0-2.6,1.2-2.6,2.6s1.2,2.6,2.6,2.6l5.2,0
			c0,0,0,0,0,0l10.7,37.1c0.5,1.3,2.2,2.7,4.1,2.7h31c1.4,0,2.5-1.1,2.6-2.5c0.1-1.6-1.1-2.7-2.6-2.7l-30.3,0c0,0,0,0,0,0l-1.1-3.8
			h34.6c1.3,0,2.4-1.1,2.4-2.6c0-1.4-1.1-2.6-2.4-2.6H30l-1.1-3.8h39.2c1.4,0,2.5-1.1,2.5-2.6c0-1.4-1.1-2.6-2.5-2.6H27.4v0
			l-1.1-3.8h44.4c1.4,0,2.5-1.1,2.5-2.6C73.2,46.6,72.1,45.4,70.7,45.4"/>
	</g>
	<g>
		<path class="st0" d="M311.3,38.7c0-1.3,0.3-2.4,0.9-3.5c0.6-1.1,1.4-1.9,2.4-2.6c1-0.6,2.2-0.9,3.4-0.9c1.2,0,2.3,0.3,3.4,0.9
			c1,0.6,1.9,1.5,2.4,2.6c0.6,1.1,0.9,2.3,0.9,3.5c0,1.3-0.3,2.4-0.9,3.5c-0.6,1.1-1.4,1.9-2.4,2.6c-1,0.6-2.2,0.9-3.4,0.9
			c-1.2,0-2.3-0.3-3.4-0.9c-1-0.6-1.8-1.5-2.4-2.6C311.6,41.2,311.3,40,311.3,38.7z M323.5,38.7c0-1-0.2-2-0.7-2.9
			c-0.5-0.9-1.1-1.6-2-2.1c-0.9-0.5-1.8-0.8-2.8-0.8c-1,0-1.9,0.3-2.8,0.8c-0.9,0.5-1.5,1.2-2,2.1c-0.5,0.9-0.7,1.9-0.7,3
			c0,1.1,0.2,2.1,0.7,3c0.5,0.9,1.2,1.6,2,2.1c0.9,0.5,1.8,0.8,2.8,0.8c1,0,1.9-0.3,2.8-0.8c0.9-0.5,1.5-1.3,2-2.2
			C323.3,40.7,323.5,39.7,323.5,38.7z M316.6,39.4v3.2h-1.4v-8h2.7c1,0,1.7,0.2,2.3,0.6c0.5,0.4,0.8,1,0.8,1.8
			c0,0.7-0.4,1.3-1.1,1.7c0.4,0.2,0.7,0.4,0.9,0.8c0.2,0.3,0.2,0.8,0.2,1.3c0,0.5,0,0.9,0,1.1c0,0.2,0.1,0.4,0.1,0.5v0.2h-1.5
			c-0.1-0.2-0.1-0.8-0.1-1.8c0-0.5-0.1-0.8-0.3-1c-0.2-0.2-0.6-0.3-1-0.3H316.6z M316.6,38.2h1.3c0.4,0,0.8-0.1,1.1-0.3
			c0.3-0.2,0.4-0.5,0.4-0.8c0-0.4-0.1-0.8-0.3-0.9c-0.2-0.2-0.6-0.3-1.2-0.3h-1.3V38.2z"/>
	</g>
	<g>
		<path class="st0" d="M54.3,18.8c0,3.1-2.5,5.7-5.7,5.7c-3.1,0-5.7-2.6-5.7-5.7c0-3.1,2.5-5.7,5.7-5.7
			C51.8,13.1,54.3,15.7,54.3,18.8"/>
	</g>
</g>
</svg>
